<svg width="2408px" height="194.03999023437498px" xmlns="http://www.w3.org/2000/svg" viewBox="-954 -22.01999511718749 2408 194.03999023437498" style="background: none;" preserveAspectRatio="xMidYMid"><defs><filter id="editing-hover" x="-100%" y="-100%" width="300%" height="300%"><feFlood flood-color="none" result="flood"></feFlood><feComposite operator="in" in2="SourceAlpha" in="flood" result="shadow"></feComposite><feOffset dx="0" dy="0" in="SourceGraphic" result="offset-1"></feOffset><feOffset dx="0" dy="0" in="shadow" result="offset-2"></feOffset><feMerge><feMergeNode in="offset-2"></feMergeNode><feMergeNode in="offset-1"></feMergeNode></feMerge></filter></defs><g filter="url(#editing-hover)"><g transform="translate(-623.8799514770508, 123.71999931335449)"><path d="M51.30-17.70L51.30-17.70Q51.30-8.06 46.87-4.03L46.87-4.03L46.87-4.03Q42.45 0 32.26 0L32.26 0L9.18 0L9.18-78.40L30.91-78.40L30.91-78.40Q40.99-78.40 46.14-74.31L46.14-74.31L46.14-74.31Q51.30-70.22 51.30-60.93L51.30-60.93L51.30-17.70ZM41.55-61.94L41.55-61.94Q41.55-65.63 39.31-67.82L39.31-67.82L39.31-67.82Q37.07-70 33.38-70L33.38-70L18.93-70L18.93-8.40L33.26-8.40L33.26-8.40Q37.52-8.40 39.54-10.36L39.54-10.36L39.54-10.36Q41.55-12.32 41.55-16.58L41.55-16.58L41.55-61.94ZM107.18 0L107.18 0Q105.73 0 103.99-0.90L103.99-0.90L103.99-0.90Q102.26-1.79 101.02-3.36L101.02-3.36L101.02-3.36Q98.45 0 94.19 0L94.19 0L84.22 0L84.22 0Q75.71 0 71.85-3.42L71.85-3.42L71.85-3.42Q67.98-6.83 67.98-15.12L67.98-15.12L67.98-17.36L67.98-17.36Q67.98-34.72 84.34-34.72L84.34-34.72L98.22-34.72L98.22-40.32L98.22-40.32Q98.22-43.79 96.10-45.70L96.10-45.70L96.10-45.70Q93.97-47.60 89.82-47.60L89.82-47.60L72.46-47.60L72.46-56L88.70-56L88.70-56Q98.45-56 103.10-51.74L103.10-51.74L103.10-51.74Q107.74-47.49 107.74-38.08L107.74-38.08L107.74-11.20L107.74-11.20Q107.74-9.52 109.03-8.68L109.03-8.68L109.03-8.68Q110.32-7.84 113.34-7.84L113.34-7.84L113.34 0L107.18 0ZM93.07-8.40L93.07-8.40Q96.43-8.40 97.33-9.97L97.33-9.97L97.33-9.97Q98.22-11.54 98.22-14L98.22-14L98.22-26.32L84.22-26.32L84.22-26.32Q81.31-26.32 79.41-24.42L79.41-24.42L79.41-24.42Q77.50-22.51 77.50-19.60L77.50-19.60L77.50-14L77.50-14Q77.50-11.09 78.85-9.74L78.85-9.74L78.85-9.74Q80.19-8.40 83.10-8.40L83.10-8.40L93.07-8.40ZM130.70-56L139.66-56L139.66-53.31L139.66-53.31Q143.14-56 148.62-56L148.62-56L152.66-56L152.66-56Q162.51-56 167.10-51.80L167.10-51.80L167.10-51.80Q171.70-47.60 171.70-38.08L171.70-38.08L171.70-17.92L171.70-17.92Q171.70-8.51 167.05-4.26L167.05-4.26L167.05-4.26Q162.40 0 152.66 0L152.66 0L140.22 0L140.22 19.04L130.70 19.04L130.70-56ZM147.50-47.60L147.50-47.60Q143.81-47.60 142.02-45.64L142.02-45.64L142.02-45.64Q140.22-43.68 140.22-41.44L140.22-41.44L140.22-8.40L153.78-8.40L153.78-8.40Q157.92-8.40 160.05-10.30L160.05-10.30L160.05-10.30Q162.18-12.21 162.18-15.68L162.18-15.68L162.18-40.32L162.18-40.32Q162.18-43.79 160.05-45.70L160.05-45.70L160.05-45.70Q157.92-47.60 153.78-47.60L153.78-47.60L147.50-47.60ZM191.18-78.40L200.70-78.40L200.70-53.76L200.70-53.76Q204.06-56 209.10-56L209.10-56L214.26-56L214.26-56Q223.33-56 227.75-51.74L227.75-51.74L227.75-51.74Q232.18-47.49 232.18-38.08L232.18-38.08L232.18 0L222.66 0L222.66-40.32L222.66-40.32Q222.66-43.68 220.70-45.64L220.70-45.64L220.70-45.64Q218.74-47.60 215.38-47.60L215.38-47.60L207.98-47.60L207.98-47.60Q204.40-47.60 202.61-45.75L202.61-45.75L202.61-45.75Q200.82-43.90 200.70-41.78L200.70-41.78L200.70 0L191.18 0L191.18-78.40ZM251.66-56L260.62-56L260.62-53.31L260.62-53.31Q264.10-56 269.58-56L269.58-56L274.74-56L274.74-56Q283.81-56 288.23-51.74L288.23-51.74L288.23-51.74Q292.66-47.49 292.66-38.08L292.66-38.08L292.66 0L283.14 0L283.14-40.32L283.14-40.32Q283.14-43.68 281.18-45.64L281.18-45.64L281.18-45.64Q279.22-47.60 275.86-47.60L275.86-47.60L268.46-47.60L268.46-47.60Q264.77-47.60 262.98-45.64L262.98-45.64L262.98-45.64Q261.18-43.68 261.18-41.44L261.18-41.44L261.18 0L251.66 0L251.66-56ZM331.97 0L331.97 0Q322.11 0 317.52-4.20L317.52-4.20L317.52-4.20Q312.93-8.40 312.93-17.92L312.93-17.92L312.93-38.08L312.93-38.08Q312.93-47.71 317.07-51.86L317.07-51.86L317.07-51.86Q321.22-56 330.85-56L330.85-56L336.11-56L336.11-56Q344.06-56 348.15-51.58L348.15-51.58L348.15-51.58Q352.24-47.15 352.24-38.64L352.24-38.64L352.24-24.08L322.45-24.08L322.45-15.68L322.45-15.68Q322.45-12.21 324.58-10.30L324.58-10.30L324.58-10.30Q326.70-8.40 330.85-8.40L330.85-8.40L348.66-8.40L348.66 0L331.97 0ZM342.94-32.48L342.94-40.88L342.94-40.88Q342.94-43.79 341.04-45.70L341.04-45.70L341.04-45.70Q339.14-47.60 336.22-47.60L336.22-47.60L329.73-47.60L329.73-47.60Q325.70-47.60 324.07-45.75L324.07-45.75L324.07-45.75Q322.45-43.90 322.45-40.32L322.45-40.32L322.45-32.48L342.94-32.48ZM470.62-14L470.62-14Q470.62-6.94 466.31-3.47L466.31-3.47L466.31-3.47Q462.00 0 453.82 0L453.82 0L437.14 0L437.14-8.40L454.94-8.40L454.94-8.40Q457.97-8.40 459.54-9.69L459.54-9.69L459.54-9.69Q461.10-10.98 461.10-13.44L461.10-13.44L461.10-19.38L461.10-19.38Q461.10-24.42 456.29-24.42L456.29-24.42L452.14-24.42L452.14-24.42Q444.30-24.42 440.44-27.83L440.44-27.83L440.44-27.83Q436.58-31.25 436.58-38.64L436.58-38.64L436.58-41.89L436.58-41.89Q436.58-49.39 440.83-52.70L440.83-52.70L440.83-52.70Q445.09-56 453.38-56L453.38-56L468.38-56L468.38-47.60L452.26-47.60L452.26-47.60Q449.46-47.60 447.78-46.31L447.78-46.31L447.78-46.31Q446.10-45.02 446.10-42.56L446.10-42.56L446.10-38.53L446.10-38.53Q446.10-35.95 447.61-34.72L447.61-34.72L447.61-34.72Q449.12-33.49 451.47-33.49L451.47-33.49L455.28-33.49L455.28-33.49Q462.78-33.49 466.70-29.85L466.70-29.85L466.70-29.85Q470.62-26.21 470.62-19.04L470.62-19.04L470.62-14ZM513.41 0L513.41 0Q503.55 0 498.96-4.20L498.96-4.20L498.96-4.20Q494.37-8.40 494.37-17.92L494.37-17.92L494.37-38.08L494.37-38.08Q494.37-47.71 498.51-51.86L498.51-51.86L498.51-51.86Q502.66-56 512.29-56L512.29-56L517.55-56L517.55-56Q525.50-56 529.59-51.58L529.59-51.58L529.59-51.58Q533.68-47.15 533.68-38.64L533.68-38.64L533.68-24.08L503.89-24.08L503.89-15.68L503.89-15.68Q503.89-12.21 506.02-10.30L506.02-10.30L506.02-10.30Q508.14-8.40 512.29-8.40L512.29-8.40L530.10-8.40L530.10 0L513.41 0ZM524.38-32.48L524.38-40.88L524.38-40.88Q524.38-43.79 522.48-45.70L522.48-45.70L522.48-45.70Q520.58-47.60 517.66-47.60L517.66-47.60L511.17-47.60L511.17-47.60Q507.14-47.60 505.51-45.75L505.51-45.75L505.51-45.75Q503.89-43.90 503.89-40.32L503.89-40.32L503.89-32.48L524.38-32.48ZM555.52-8.40L563.70-8.40L563.70-47.60L555.52-47.60L555.52-56L572.66-56L572.66-52.98L572.66-52.98Q576.35-56 581.62-56L581.62-56L593.15-56L593.15-47.04L580.50-47.04L580.50-47.04Q576.91-47.04 575.12-44.74L575.12-44.74L575.12-44.74Q573.33-42.45 573.22-40.10L573.22-40.10L573.22-8.40L585.42-8.40L585.42 0L555.52 0L555.52-8.40ZM629.66-78.40L640.30-78.40L640.30-68.32L629.66-68.32L629.66-78.40ZM630.22-47.60L613.76-47.60L613.76-56L639.74-56L639.74-8.40L656.32-8.40L656.32 0L630.22 0L630.22-47.60ZM697.76 0L697.76 0Q687.90 0 683.31-4.20L683.31-4.20L683.31-4.20Q678.72-8.40 678.72-17.92L678.72-17.92L678.72-38.08L678.72-38.08Q678.72-47.49 683.37-51.74L683.37-51.74L683.37-51.74Q688.02-56 697.76-56L697.76-56L712.21-56L712.21-47.60L696.64-47.60L696.64-47.60Q692.50-47.60 690.37-45.70L690.37-45.70L690.37-45.70Q688.24-43.79 688.24-40.32L688.24-40.32L688.24-15.68L688.24-15.68Q688.24-12.21 690.37-10.30L690.37-10.30L690.37-10.30Q692.50-8.40 696.64-8.40L696.64-8.40L712.21-8.40L712.21 0L697.76 0ZM755.33 0L755.33 0Q745.47 0 740.88-4.20L740.88-4.20L740.88-4.20Q736.29-8.40 736.29-17.92L736.29-17.92L736.29-38.08L736.29-38.08Q736.29-47.71 740.43-51.86L740.43-51.86L740.43-51.86Q744.58-56 754.21-56L754.21-56L759.47-56L759.47-56Q767.42-56 771.51-51.58L771.51-51.58L771.51-51.58Q775.60-47.15 775.60-38.64L775.60-38.64L775.60-24.08L745.81-24.08L745.81-15.68L745.81-15.68Q745.81-12.21 747.94-10.30L747.94-10.30L747.94-10.30Q750.06-8.40 754.21-8.40L754.21-8.40L772.02-8.40L772.02 0L755.33 0ZM766.30-32.48L766.30-40.88L766.30-40.88Q766.30-43.79 764.40-45.70L764.40-45.70L764.40-45.70Q762.50-47.60 759.58-47.60L759.58-47.60L753.09-47.60L753.09-47.60Q749.06-47.60 747.43-45.75L747.43-45.75L747.43-45.75Q745.81-43.90 745.81-40.32L745.81-40.32L745.81-32.48L766.30-32.48ZM832.94 0L832.94 0Q831.49 0 829.75-0.90L829.75-0.90L829.75-0.90Q828.02-1.79 826.78-3.36L826.78-3.36L826.78-3.36Q824.21 0 819.95 0L819.95 0L809.98 0L809.98 0Q801.47 0 797.61-3.42L797.61-3.42L797.61-3.42Q793.74-6.83 793.74-15.12L793.74-15.12L793.74-17.36L793.74-17.36Q793.74-34.72 810.10-34.72L810.10-34.72L823.98-34.72L823.98-40.32L823.98-40.32Q823.98-43.79 821.86-45.70L821.86-45.70L821.86-45.70Q819.73-47.60 815.58-47.60L815.58-47.60L798.22-47.60L798.22-56L814.46-56L814.46-56Q824.21-56 828.86-51.74L828.86-51.74L828.86-51.74Q833.50-47.49 833.50-38.08L833.50-38.08L833.50-11.20L833.50-11.20Q833.50-9.52 834.79-8.68L834.79-8.68L834.79-8.68Q836.08-7.84 839.10-7.84L839.10-7.84L839.10 0L832.94 0ZM818.83-8.40L818.83-8.40Q822.19-8.40 823.09-9.97L823.09-9.97L823.09-9.97Q823.98-11.54 823.98-14L823.98-14L823.98-26.32L809.98-26.32L809.98-26.32Q807.07-26.32 805.17-24.42L805.17-24.42L805.17-24.42Q803.26-22.51 803.26-19.60L803.26-19.60L803.26-14L803.26-14Q803.26-11.09 804.61-9.74L804.61-9.74L804.61-9.74Q805.95-8.40 808.86-8.40L808.86-8.40L818.83-8.40ZM919.18-39.20L955.58-39.20L955.58-30.80L919.18-30.80L919.18-39.20ZM1060.53 0L1060.53 0Q1050.78 0 1045.58-4.76L1045.58-4.76L1045.58-4.76Q1040.37-9.52 1040.37-19.04L1040.37-19.04L1040.37-59.36L1040.37-59.36Q1040.37-68.88 1045.58-73.64L1045.58-73.64L1045.58-73.64Q1050.78-78.40 1060.53-78.40L1060.53-78.40L1076.43-78.40L1076.43-69.89L1059.41-69.89L1059.41-69.89Q1055.26-69.89 1052.69-67.42L1052.69-67.42L1052.69-67.42Q1050.11-64.96 1050.11-61.49L1050.11-61.49L1050.11-16.91L1050.11-16.91Q1050.11-13.44 1052.69-10.98L1052.69-10.98L1052.69-10.98Q1055.26-8.51 1059.41-8.51L1059.41-8.51L1076.43-8.51L1076.43 0L1060.53 0ZM1130.42-36.06L1107.34-36.06L1107.34 0L1097.60 0L1097.60-78.40L1107.34-78.40L1107.34-44.35L1130.42-44.35L1130.42-78.40L1140.16-78.40L1140.16 0L1130.42 0L1130.42-36.06ZM1164.35-8.18L1174.43-8.18L1174.43-70.22L1164.35-70.22L1164.35-78.40L1194.26-78.40L1194.26-70.22L1184.18-70.22L1184.18-8.18L1194.26-8.18L1194.26 0L1164.35 0L1164.35-8.18ZM1258.99-8.29L1258.99 0L1219.34 0L1219.34-9.86L1250.03-70.11L1221.92-70.11L1221.92-78.40L1260.11-78.40L1260.11-68.54L1229.54-8.29L1258.99-8.29ZM1321.04-17.70L1321.04-17.70Q1321.04-8.06 1316.62-4.03L1316.62-4.03L1316.62-4.03Q1312.19 0 1302.00 0L1302.00 0L1279.60 0L1279.60-78.40L1300.66-78.40L1300.66-78.40Q1310.62-78.40 1315.27-74.37L1315.27-74.37L1315.27-74.37Q1319.92-70.34 1319.92-60.93L1319.92-60.93L1319.92-54.54L1319.92-54.54Q1319.92-45.92 1313.76-41.55L1313.76-41.55L1313.76-41.55Q1321.04-37.52 1321.04-27.78L1321.04-27.78L1321.04-17.70ZM1310.18-61.94L1310.18-61.94Q1310.18-66.19 1308.22-68.10L1308.22-68.10L1308.22-68.10Q1306.26-70 1302.00-70L1302.00-70L1289.34-70L1289.34-45.25L1302.00-45.25L1302.00-45.25Q1305.47-45.25 1307.82-47.49L1307.82-47.49L1307.82-47.49Q1310.18-49.73 1310.18-53.42L1310.18-53.42L1310.18-61.94ZM1311.30-28.78L1311.30-28.78Q1311.30-32.48 1309.06-34.66L1309.06-34.66L1309.06-34.66Q1306.82-36.85 1303.12-36.85L1303.12-36.85L1289.34-36.85L1289.34-8.40L1303.01-8.40L1303.01-8.40Q1307.26-8.40 1309.28-10.36L1309.28-10.36L1309.28-10.36Q1311.30-12.32 1311.30-16.58L1311.30-16.58L1311.30-28.78ZM1359.12-32.48L1348.14-32.48L1348.14 0L1338.40 0L1338.40-78.40L1359.46-78.40L1359.46-78.40Q1368.98-78.40 1373.85-74.20L1373.85-74.20L1373.85-74.20Q1378.72-70 1378.72-60.93L1378.72-60.93L1378.72-50.18L1378.72-50.18Q1378.72-37.52 1368.64-34.38L1368.64-34.38L1384.21 0L1373.57 0L1359.12-32.48ZM1368.98-61.94L1368.98-61.94Q1368.98-66.19 1367.02-68.10L1367.02-68.10L1367.02-68.10Q1365.06-70 1360.80-70L1360.80-70L1348.14-70L1348.14-40.88L1360.80-40.88L1360.80-40.88Q1365.06-40.88 1367.02-42.84L1367.02-42.84L1367.02-42.84Q1368.98-44.80 1368.98-49.06L1368.98-49.06L1368.98-61.94ZM1402.58-78.40L1439.98-78.40L1439.98-70.22L1412.32-70.22L1412.32-44.58L1437.18-44.58L1437.18-36.40L1412.32-36.40L1412.32-8.18L1439.98-8.18L1439.98 0L1402.58 0L1402.58-78.40ZM1502.82-17.70L1502.82-17.70Q1502.82-8.06 1498.39-4.03L1498.39-4.03L1498.39-4.03Q1493.97 0 1483.78 0L1483.78 0L1460.70 0L1460.70-78.40L1482.43-78.40L1482.43-78.40Q1492.51-78.40 1497.66-74.31L1497.66-74.31L1497.66-74.31Q1502.82-70.22 1502.82-60.93L1502.82-60.93L1502.82-17.70ZM1493.07-61.94L1493.07-61.94Q1493.07-65.63 1490.83-67.82L1490.83-67.82L1490.83-67.82Q1488.59-70 1484.90-70L1484.90-70L1470.45-70L1470.45-8.40L1484.78-8.40L1484.78-8.40Q1489.04-8.40 1491.06-10.36L1491.06-10.36L1491.06-10.36Q1493.07-12.32 1493.07-16.58L1493.07-16.58L1493.07-61.94ZM1561.17-19.04L1561.17-19.04Q1561.17-9.52 1555.96-4.76L1555.96-4.76L1555.96-4.76Q1550.75 0 1541.01 0L1541.01 0L1525.10 0L1525.10-8.51L1542.13-8.51L1542.13-8.51Q1546.27-8.51 1548.85-10.98L1548.85-10.98L1548.85-10.98Q1551.42-13.44 1551.42-16.91L1551.42-16.91L1551.42-28.56L1551.42-28.56Q1551.42-31.92 1549.69-33.99L1549.69-33.99L1549.69-33.99Q1547.95-36.06 1544.48-36.06L1544.48-36.06L1541.12-36.06L1541.12-36.06Q1532.83-36.06 1528.02-40.94L1528.02-40.94L1528.02-40.94Q1523.20-45.81 1523.20-55.10L1523.20-55.10L1523.20-59.36L1523.20-59.36Q1523.20-68.88 1528.41-73.64L1528.41-73.64L1528.41-73.64Q1533.62-78.40 1543.36-78.40L1543.36-78.40L1559.38-78.40L1559.38-69.89L1542.24-69.89L1542.24-69.89Q1538.10-69.89 1535.52-67.42L1535.52-67.42L1535.52-67.42Q1532.94-64.96 1532.94-61.49L1532.94-61.49L1532.94-52.98L1532.94-52.98Q1532.94-49.50 1535.18-47.21L1535.18-47.21L1535.18-47.21Q1537.42-44.91 1541.01-44.91L1541.01-44.91L1544.37-44.91L1544.37-44.91Q1552.32-44.91 1556.74-40.32L1556.74-40.32L1556.74-40.32Q1561.17-35.73 1561.17-26.43L1561.17-26.43L1561.17-19.04ZM1684.70-19.04L1684.70-19.04Q1684.70-9.52 1679.50-4.76L1679.50-4.76L1679.50-4.76Q1674.29 0 1664.54 0L1664.54 0L1661.74 0L1661.74 0Q1652.00 0 1646.79-4.76L1646.79-4.76L1646.79-4.76Q1641.58-9.52 1641.58-19.04L1641.58-19.04L1641.58-78.40L1651.33-78.40L1651.33-16.91L1651.33-16.91Q1651.33-13.44 1653.90-10.98L1653.90-10.98L1653.90-10.98Q1656.48-8.51 1660.62-8.51L1660.62-8.51L1665.66-8.51L1665.66-8.51Q1669.81-8.51 1672.38-10.98L1672.38-10.98L1672.38-10.98Q1674.96-13.44 1674.96-16.91L1674.96-16.91L1674.96-78.40L1684.70-78.40L1684.70-19.04ZM1708.67-8.18L1718.75-8.18L1718.75-70.22L1708.67-70.22L1708.67-78.40L1738.58-78.40L1738.58-70.22L1728.50-70.22L1728.50-8.18L1738.58-8.18L1738.58 0L1708.67 0L1708.67-8.18Z" fill="#000000"></path></g></g><style>text {
  font-size: 64px;
  font-family: Arial Black;
  dominant-baseline: central;
  text-anchor: middle;
}</style></svg>