<?xml version="1.0"?>
<svg width="2408" height="194.03999023437498" xmlns="http://www.w3.org/2000/svg" xmlns:svg="http://www.w3.org/2000/svg" preserveAspectRatio="xMidYMid">
 <defs>
  <filter height="300%" id="editing-hover" width="300%" x="-100%" y="-100%">
   <feFlood flood-color="none" result="flood"/>
   <feComposite in="flood" in2="SourceAlpha" operator="in" result="shadow"/>
   <feOffset dx="0" dy="0" in="SourceGraphic" result="offset-1"/>
   <feOffset dx="0" dy="0" in="shadow" result="offset-2"/>
   <feMerge>
    <feMergeNode in="offset-2"/>
    <feMergeNode in="offset-1"/>
   </feMerge>
  </filter>
 </defs>
 <style>text {
  font-size: 64px;
  font-family: Arial Black;
  dominant-baseline: central;
  text-anchor: middle;
}</style>
 <g class="layer">
  <title>Layer 1</title>
  <g filter="url(#editing-hover)" id="svg_1">
   <g id="svg_2" transform="translate(-623.88, 123.72)">
    <path d="m666,-63.02l0,0q0,9.64 -4.43,13.67l0,0l0,0q-4.42,4.03 -14.61,4.03l0,0l-23.08,0l0,-78.4l21.73,0l0,0q10.08,0 15.23,4.09l0,0l0,0q5.16,4.09 5.16,13.38l0,0l0,43.23zm-9.75,-44.24l0,0q0,-3.69 -2.24,-5.88l0,0l0,0q-2.24,-2.18 -5.93,-2.18l0,0l-14.45,0l0,61.6l14.33,0l0,0q4.26,0 6.28,-1.96l0,0l0,0q2.01,-1.96 2.01,-6.22l0,0l0,-45.36zm65.63,61.94l0,0q-1.45,0 -3.19,-0.9l0,0l0,0q-1.73,-0.89 -2.97,-2.46l0,0l0,0q-2.57,3.36 -6.83,3.36l0,0l-9.97,0l0,0q-8.51,0 -12.37,-3.42l0,0l0,0q-3.87,-3.41 -3.87,-11.7l0,0l0,-2.24l0,0q0,-17.36 16.36,-17.36l0,0l13.88,0l0,-5.6l0,0q0,-3.47 -2.12,-5.38l0,0l0,0q-2.13,-1.9 -6.28,-1.9l0,0l-17.36,0l0,-8.4l16.24,0l0,0q9.75,0 14.4,4.26l0,0l0,0q4.64,4.25 4.64,13.66l0,0l0,26.88l0,0q0,1.68 1.29,2.52l0,0l0,0q1.29,0.84 4.31,0.84l0,0l0,7.84l-6.16,0zm-14.11,-8.4l0,0q3.36,0 4.26,-1.57l0,0l0,0q0.89,-1.57 0.89,-4.03l0,0l0,-12.32l-14,0l0,0q-2.91,0 -4.81,1.9l0,0l0,0q-1.91,1.91 -1.91,4.82l0,0l0,5.6l0,0q0,2.91 1.35,4.26l0,0l0,0q1.34,1.34 4.25,1.34l0,0l9.97,0zm37.63,-47.6l8.96,0l0,2.69l0,0q3.48,-2.69 8.96,-2.69l0,0l4.04,0l0,0q9.85,0 14.44,4.2l0,0l0,0q4.6,4.2 4.6,13.72l0,0l0,20.16l0,0q0,9.41 -4.65,13.66l0,0l0,0q-4.65,4.26 -14.39,4.26l0,0l-12.44,0l0,19.04l-9.52,0l0,-75.04zm16.8,8.4l0,0q-3.69,0 -5.48,1.96l0,0l0,0q-1.8,1.96 -1.8,4.2l0,0l0,33.04l13.56,0l0,0q4.14,0 6.27,-1.9l0,0l0,0q2.13,-1.91 2.13,-5.38l0,0l0,-24.64l0,0q0,-3.47 -2.13,-5.38l0,0l0,0q-2.13,-1.9 -6.27,-1.9l0,0l-6.28,0zm43.68,-30.8l9.52,0l0,24.64l0,0q3.36,-2.24 8.4,-2.24l0,0l5.16,0l0,0q9.07,0 13.49,4.26l0,0l0,0q4.43,4.25 4.43,13.66l0,0l0,38.08l-9.52,0l0,-40.32l0,0q0,-3.36 -1.96,-5.32l0,0l0,0q-1.96,-1.96 -5.32,-1.96l0,0l-7.4,0l0,0q-3.58,0 -5.37,1.85l0,0l0,0q-1.79,1.85 -1.91,3.97l0,0l0,41.78l-9.52,0l0,-78.4zm60.48,22.4l8.96,0l0,2.69l0,0q3.48,-2.69 8.96,-2.69l0,0l5.16,0l0,0q9.07,0 13.49,4.26l0,0l0,0q4.43,4.25 4.43,13.66l0,0l0,38.08l-9.52,0l0,-40.32l0,0q0,-3.36 -1.96,-5.32l0,0l0,0q-1.96,-1.96 -5.32,-1.96l0,0l-7.4,0l0,0q-3.69,0 -5.48,1.96l0,0l0,0q-1.8,1.96 -1.8,4.2l0,0l0,41.44l-9.52,0l0,-56zm80.31,56l0,0q-9.86,0 -14.45,-4.2l0,0l0,0q-4.59,-4.2 -4.59,-13.72l0,0l0,-20.16l0,0q0,-9.63 4.14,-13.78l0,0l0,0q4.15,-4.14 13.78,-4.14l0,0l5.26,0l0,0q7.95,0 12.04,4.42l0,0l0,0q4.09,4.43 4.09,12.94l0,0l0,14.56l-29.79,0l0,8.4l0,0q0,3.47 2.13,5.38l0,0l0,0q2.12,1.9 6.27,1.9l0,0l17.81,0l0,8.4l-16.69,0zm10.97,-32.48l0,-8.4l0,0q0,-2.91 -1.9,-4.82l0,0l0,0q-1.9,-1.9 -4.82,-1.9l0,0l-6.49,0l0,0q-4.03,0 -5.66,1.85l0,0l0,0q-1.62,1.85 -1.62,5.43l0,0l0,7.84l20.49,0zm127.68,18.48l0,0q0,7.06 -4.31,10.53l0,0l0,0q-4.31,3.47 -12.49,3.47l0,0l-16.68,0l0,-8.4l17.8,0l0,0q3.03,0 4.6,-1.29l0,0l0,0q1.56,-1.29 1.56,-3.75l0,0l0,-5.94l0,0q0,-5.04 -4.81,-5.04l0,0l-4.15,0l0,0q-7.84,0 -11.7,-3.41l0,0l0,0q-3.86,-3.42 -3.86,-10.81l0,0l0,-3.25l0,0q0,-7.5 4.25,-10.81l0,0l0,0q4.26,-3.3 12.55,-3.3l0,0l15,0l0,8.4l-16.12,0l0,0q-2.8,0 -4.48,1.29l0,0l0,0q-1.68,1.29 -1.68,3.75l0,0l0,4.03l0,0q0,2.58 1.51,3.81l0,0l0,0q1.51,1.23 3.86,1.23l0,0l3.81,0l0,0q7.5,0 11.42,3.64l0,0l0,0q3.92,3.64 3.92,10.81l0,0l0,5.04zm42.79,14l0,0q-9.86,0 -14.45,-4.2l0,0l0,0q-4.59,-4.2 -4.59,-13.72l0,0l0,-20.16l0,0q0,-9.63 4.14,-13.78l0,0l0,0q4.15,-4.14 13.78,-4.14l0,0l5.26,0l0,0q7.95,0 12.04,4.42l0,0l0,0q4.09,4.43 4.09,12.94l0,0l0,14.56l-29.79,0l0,8.4l0,0q0,3.47 2.13,5.38l0,0l0,0q2.12,1.9 6.27,1.9l0,0l17.81,0l0,8.4l-16.69,0zm10.97,-32.48l0,-8.4l0,0q0,-2.91 -1.9,-4.82l0,0l0,0q-1.9,-1.9 -4.82,-1.9l0,0l-6.49,0l0,0q-4.03,0 -5.66,1.85l0,0l0,0q-1.62,1.85 -1.62,5.43l0,0l0,7.84l20.49,0zm31.14,24.08l8.18,0l0,-39.2l-8.18,0l0,-8.4l17.14,0l0,3.02l0,0q3.69,-3.02 8.96,-3.02l0,0l11.53,0l0,8.96l-12.65,0l0,0q-3.59,0 -5.38,2.3l0,0l0,0q-1.79,2.29 -1.9,4.64l0,0l0,31.7l12.2,0l0,8.4l-29.9,0l0,-8.4zm74.14,-70l10.64,0l0,10.08l-10.64,0l0,-10.08zm0.56,30.8l-16.46,0l0,-8.4l25.98,0l0,47.6l16.58,0l0,8.4l-26.1,0l0,-47.6zm67.54,47.6l0,0q-9.86,0 -14.45,-4.2l0,0l0,0q-4.59,-4.2 -4.59,-13.72l0,0l0,-20.16l0,0q0,-9.41 4.65,-13.66l0,0l0,0q4.65,-4.26 14.39,-4.26l0,0l14.45,0l0,8.4l-15.57,0l0,0q-4.14,0 -6.27,1.9l0,0l0,0q-2.13,1.91 -2.13,5.38l0,0l0,24.64l0,0q0,3.47 2.13,5.38l0,0l0,0q2.13,1.9 6.27,1.9l0,0l15.57,0l0,8.4l-14.45,0zm57.57,0l0,0q-9.86,0 -14.45,-4.2l0,0l0,0q-4.59,-4.2 -4.59,-13.72l0,0l0,-20.16l0,0q0,-9.63 4.14,-13.78l0,0l0,0q4.15,-4.14 13.78,-4.14l0,0l5.26,0l0,0q7.95,0 12.04,4.42l0,0l0,0q4.09,4.43 4.09,12.94l0,0l0,14.56l-29.79,0l0,8.4l0,0q0,3.47 2.13,5.38l0,0l0,0q2.12,1.9 6.27,1.9l0,0l17.81,0l0,8.4l-16.69,0zm10.97,-32.48l0,-8.4l0,0q0,-2.91 -1.9,-4.82l0,0l0,0q-1.9,-1.9 -4.82,-1.9l0,0l-6.49,0l0,0q-4.03,0 -5.66,1.85l0,0l0,0q-1.62,1.85 -1.62,5.43l0,0l0,7.84l20.49,0zm66.64,32.48l0,0q-1.45,0 -3.19,-0.9l0,0l0,0q-1.73,-0.89 -2.97,-2.46l0,0l0,0q-2.57,3.36 -6.83,3.36l0,0l-9.97,0l0,0q-8.51,0 -12.37,-3.42l0,0l0,0q-3.87,-3.41 -3.87,-11.7l0,0l0,-2.24l0,0q0,-17.36 16.36,-17.36l0,0l13.88,0l0,-5.6l0,0q0,-3.47 -2.12,-5.38l0,0l0,0q-2.13,-1.9 -6.28,-1.9l0,0l-17.36,0l0,-8.4l16.24,0l0,0q9.75,0 14.4,4.26l0,0l0,0q4.64,4.25 4.64,13.66l0,0l0,26.88l0,0q0,1.68 1.29,2.52l0,0l0,0q1.29,0.84 4.31,0.84l0,0l0,7.84l-6.16,0zm-14.11,-8.4l0,0q3.36,0 4.26,-1.57l0,0l0,0q0.89,-1.57 0.89,-4.03l0,0l0,-12.32l-14,0l0,0q-2.91,0 -4.81,1.9l0,0l0,0q-1.91,1.91 -1.91,4.82l0,0l0,5.6l0,0q0,2.91 1.35,4.26l0,0l0,0q1.34,1.34 4.25,1.34l0,0l9.97,0zm100.35,-30.8l36.4,0l0,8.4l-36.4,0l0,-8.4zm141.35,39.2l0,0q-9.75,0 -14.95,-4.76l0,0l0,0q-5.21,-4.76 -5.21,-14.28l0,0l0,-40.32l0,0q0,-9.52 5.21,-14.28l0,0l0,0q5.2,-4.76 14.95,-4.76l0,0l15.9,0l0,8.51l-17.02,0l0,0q-4.15,0 -6.72,2.47l0,0l0,0q-2.58,2.46 -2.58,5.93l0,0l0,44.58l0,0q0,3.47 2.58,5.93l0,0l0,0q2.57,2.47 6.72,2.47l0,0l17.02,0l0,8.51l-15.9,0zm69.89,-36.06l-23.08,0l0,36.06l-9.74,0l0,-78.4l9.74,0l0,34.05l23.08,0l0,-34.05l9.74,0l0,78.4l-9.74,0l0,-36.06zm33.93,27.88l10.08,0l0,-62.04l-10.08,0l0,-8.18l29.91,0l0,8.18l-10.08,0l0,62.04l10.08,0l0,8.18l-29.91,0l0,-8.18zm94.64,-0.11l0,8.29l-39.65,0l0,-9.86l30.69,-60.25l-28.11,0l0,-8.29l38.19,0l0,9.86l-30.57,60.25l29.45,0zm62.05,-9.41l0,0q0,9.64 -4.42,13.67l0,0l0,0q-4.43,4.03 -14.62,4.03l0,0l-22.4,0l0,-78.4l21.06,0l0,0q9.96,0 14.61,4.03l0,0l0,0q4.65,4.03 4.65,13.44l0,0l0,6.39l0,0q0,8.62 -6.16,12.99l0,0l0,0q7.28,4.03 7.28,13.77l0,0l0,10.08zm-10.86,-44.24l0,0q0,-4.25 -1.96,-6.16l0,0l0,0q-1.96,-1.9 -6.22,-1.9l0,0l-12.66,0l0,24.75l12.66,0l0,0q3.47,0 5.82,-2.24l0,0l0,0q2.36,-2.24 2.36,-5.93l0,0l0,-8.52zm1.12,33.16l0,0q0,-3.7 -2.24,-5.88l0,0l0,0q-2.24,-2.19 -5.94,-2.19l0,0l-13.78,0l0,28.45l13.67,0l0,0q4.25,0 6.27,-1.96l0,0l0,0q2.02,-1.96 2.02,-6.22l0,0l0,-12.2zm47.82,-3.7l-10.98,0l0,32.48l-9.74,0l0,-78.4l21.06,0l0,0q9.52,0 14.39,4.2l0,0l0,0q4.87,4.2 4.87,13.27l0,0l0,10.75l0,0q0,12.66 -10.08,15.8l0,0l15.57,34.38l-10.64,0l-14.45,-32.48zm9.86,-29.46l0,0q0,-4.25 -1.96,-6.16l0,0l0,0q-1.96,-1.9 -6.22,-1.9l0,0l-12.66,0l0,29.12l12.66,0l0,0q4.26,0 6.22,-1.96l0,0l0,0q1.96,-1.96 1.96,-6.22l0,0l0,-12.88zm33.6,-16.46l37.4,0l0,8.18l-27.66,0l0,25.64l24.86,0l0,8.18l-24.86,0l0,28.22l27.66,0l0,8.18l-37.4,0l0,-78.4zm100.24,60.7l0,0q0,9.64 -4.43,13.67l0,0l0,0q-4.42,4.03 -14.61,4.03l0,0l-23.08,0l0,-78.4l21.73,0l0,0q10.08,0 15.23,4.09l0,0l0,0q5.16,4.09 5.16,13.38l0,0l0,43.23zm-9.75,-44.24l0,0q0,-3.69 -2.24,-5.88l0,0l0,0q-2.24,-2.18 -5.93,-2.18l0,0l-14.45,0l0,61.6l14.33,0l0,0q4.26,0 6.28,-1.96l0,0l0,0q2.01,-1.96 2.01,-6.22l0,0l0,-45.36zm68.1,42.9l0,0q0,9.52 -5.21,14.28l0,0l0,0q-5.21,4.76 -14.95,4.76l0,0l-15.91,0l0,-8.51l17.03,0l0,0q4.14,0 6.72,-2.47l0,0l0,0q2.57,-2.46 2.57,-5.93l0,0l0,-11.65l0,0q0,-3.36 -1.73,-5.43l0,0l0,0q-1.74,-2.07 -5.21,-2.07l0,0l-3.36,0l0,0q-8.29,0 -13.1,-4.88l0,0l0,0q-4.82,-4.87 -4.82,-14.16l0,0l0,-4.26l0,0q0,-9.52 5.21,-14.28l0,0l0,0q5.21,-4.76 14.95,-4.76l0,0l16.02,0l0,8.51l-17.14,0l0,0q-4.14,0 -6.72,2.47l0,0l0,0q-2.58,2.46 -2.58,5.93l0,0l0,8.51l0,0q0,3.48 2.24,5.77l0,0l0,0q2.24,2.3 5.83,2.3l0,0l3.36,0l0,0q7.95,0 12.37,4.59l0,0l0,0q4.43,4.59 4.43,13.89l0,0l0,7.39zm123.53,0l0,0q0,9.52 -5.2,14.28l0,0l0,0q-5.21,4.76 -14.96,4.76l0,0l-2.8,0l0,0q-9.74,0 -14.95,-4.76l0,0l0,0q-5.21,-4.76 -5.21,-14.28l0,0l0,-59.36l9.75,0l0,61.49l0,0q0,3.47 2.57,5.93l0,0l0,0q2.58,2.47 6.72,2.47l0,0l5.04,0l0,0q4.15,0 6.72,-2.47l0,0l0,0q2.58,-2.46 2.58,-5.93l0,0l0,-61.49l9.74,0l0,59.36zm23.97,10.86l10.08,0l0,-62.04l-10.08,0l0,-8.18l29.91,0l0,8.18l-10.08,0l0,62.04l10.08,0l0,8.18l-29.91,0l0,-8.18z" fill="#000000" id="svg_3"/>
   </g>
  </g>
 </g>
</svg>